<svg width="50" height="50" viewBox="0 0 50 50"
     fill="none"
     xmlns="http://www.w3.org/2000/svg">

    <!-- icons -->

    <g id="email">
        <path id="Vector" d="M19 4H5C4.20435 4 3.44129 4.31607 2.87868 4.87868C2.31607 5.44129 2 6.20435 2 7V17C2 17.7956 2.31607 18.5587
2.87868 19.1213C3.44129 19.6839 4.20435 20 5 20H19C19.7956 20 20.5587 19.6839 21.1213 19.1213C21.6839 18.5587 22 17.7956
22 17V7C22 6.20435 21.6839 5.44129 21.1213 4.87868C20.5587 4.31607 19.7956 4 19 4ZM18.59 6L12.71 11.88C12.617 11.9737 12.5064
 12.0481 12.3846 12.0989C12.2627 12.1497 12.132 12.1758 12 12.1758C11.868 12.1758 11.7373 12.1497 11.6154 12.0989C11.4936 12.0481
11.383 11.9737 11.29 11.88L5.41 6H18.59ZM20 17C20 17.2652 19.8946 17.5196 19.7071 17.7071C19.5196 17.8946 19.2652 18 19 18H5C4.73478
  18 4.48043 17.8946 4.29289 17.7071C4.10536 17.5196 4 17.2652 4 17V7.41L9.88 13.29C10.4425 13.8518 11.205 14.1674 12 14.1674C12.795
   14.1674 13.5575 13.8518 14.12 13.29L20 7.41V17Z"
              fill="white"/>
    </g>

    <g id="headphones">
        <path d="M20 13.18V11C20 8.87827 19.1571 6.84344 17.6569 5.34315C16.1566 3.84285 14.1217 3 12 3C9.87827
     3 7.84344 3.84285 6.34315 5.34315C4.84285 6.84344 4 8.87827 4 11V13.18C3.41645 13.3863 2.911 13.7681 2.55294 14.2729C2.19488 14.7778
    2.00174 15.3811 2 16V18C2 18.7956 2.31607 19.5587 2.87868 20.1213C3.44129 20.6839 4.20435 21 5 21H8C8.26522
    21 8.51957 20.8946 8.70711 20.7071C8.89464 20.5196 9 20.2652 9 20V14C9 13.7348 8.89464 13.4804 8.70711
    13.2929C8.51957 13.1054 8.26522 13 8 13H6V11C6 9.4087 6.63214 7.88258 7.75736 6.75736C8.88258 5.63214
    10.4087 5 12 5C13.5913 5 15.1174 5.63214 16.2426 6.75736C17.3679 7.88258 18 9.4087 18 11V13H16C15.7348
    13 15.4804 13.1054 15.2929 13.2929C15.1054 13.4804 15 13.7348 15 14V20C15 20.2652 15.1054 20.5196 15.2929
    20.7071C15.4804 20.8946 15.7348 21 16 21H19C19.7956 21 20.5587 20.6839 21.1213 20.1213C21.6839 19.5587 22 18.7956
     22 18V16C21.9983 15.3811 21.8051 14.7778 21.4471 14.2729C21.089 13.7681 20.5835 13.3863 20 13.18ZM7 15V19H5C4.73478
      19 4.48043 18.8946 4.29289 18.7071C4.10536 18.5196 4 18.2652 4 18V16C4 15.7348 4.10536 15.4804 4.29289 15.2929C4.48043
       15.1054 4.73478 15 5 15H7ZM20 18C20 18.2652 19.8946 18.5196 19.7071 18.7071C19.5196 18.8946 19.2652 19 19 19H17V15H19C19.2652
        15 19.5196 15.1054 19.7071 15.2929C19.8946 15.4804 20 15.7348 20 16V18Z"
              fill="white"/>
    </g>

    <g id="unitTests">
        <svg viewBox="0 0 41 41" fill="none"
             xmlns="http://www.w3.org/2000/svg">
            <g opacity="0.5">
                <path d="M32.61275 0.5H8.387325C4.031275 0.5 0.5 4.031275 0.5 8.387325V32.61275C0.5 36.96875 4.031275 40.5 8.387325 40.5H32.61275C36.96875 40.5 40.5 36.96875 40.5 32.61275V8.387325C40.5 4.031275 36.96875 0.5 32.61275 0.5Z"
                      stroke="#222"></path>
                <path d="M33.593 33.593C32.67375 34.52775 31.16875 34.52775 30.23375 33.593L25.93975 29.29875L26.03475 26.03475L29.29875 25.93975L33.593 30.23375C34.52775 31.1685 34.52775 32.67375 33.593 33.593Z"
                      fill="#333"></path>
                <path d="M33.593 33.59275C32.67375 34.52775 31.16875 34.52775 30.23375 33.59275L25.93975 29.29875L26.03475 26.03475L33.593 33.59275Z"
                      fill="#333"></path>
                <path d="M29.299 25.93975L25.93975 29.29875L22.501425 25.8605C22.200375 25.5595 22.200375 25.0525 22.501425 24.751375L24.751375 22.501425C25.0525 22.200375 25.5595 22.200375 25.8605 22.501425L29.299 25.93975Z"
                      fill="#333"></path>
                <path d="M27.61925 27.61925L25.93975 29.29875L22.501425 25.8605C22.200375 25.55925 22.200375 25.05225 22.501425 24.751275L23.626475 23.626225L27.61925 27.61925Z"
                      fill="#333"></path>
                <path d="M24.8308 10.2849C20.806075 6.244425 14.30965 6.260325 10.2849 10.2849C6.244425 14.3096 6.260325 20.806025 10.2849 24.830675C14.3096 28.87125 20.806025 28.8555 24.8308 24.830675C28.87125 20.8061 28.8555 14.3096 24.8308 10.2849Z"
                      fill="#333"></path>
                <path d="M24.83055 24.83045C20.80585 28.85525 14.309425 28.871 10.284675 24.83045C6.260075 20.80585 6.244175 14.309375 10.284675 10.284675L24.83055 24.83045Z"
                      fill="#333"></path>
                <path d="M23.721375 23.72145C20.314625 27.128 14.8006 27.128 11.39385 23.72145C7.9872 20.3147 7.9872 14.800675 11.39385 11.393925C14.8006 7.987175 20.314625 7.987175 23.721375 11.393925C27.128 14.800675 27.128 20.31475 23.721375 23.72145Z"
                      fill="white"></path>
                <path d="M23.10355 15.323525V12.804225C23.10355 12.3605 22.755 12.011975 22.3113 12.011975H19.142275C18.698575 12.011975 18.350025 12.3605 18.350025 12.804225C18.350025 13.247825 18.001475 13.596475 17.557775 13.596475C17.11405 13.596475 16.765525 13.247825 16.765525 12.804225C16.765525 12.3605 16.416975 12.011975 15.973275 12.011975H12.80425C12.582425 12.011975 12.392275 12.107025 12.233825 12.2338C12.107025 12.3922 12.012 12.582325 12.012 12.804225V15.323525C11.092925 15.640425 10.4275 16.52775 10.4275 17.557725C10.4275 18.587625 11.092925 19.47495 12.012 19.79185V22.31125C12.012 22.754875 12.360525 23.1035 12.80425 23.1035H15.973275C16.416975 23.1035 16.765525 22.754875 16.765525 22.31125C16.765525 21.86755 17.11405 21.519 17.557775 21.519C18.001475 21.519 18.350025 21.86755 18.350025 22.31125C18.350025 22.754875 18.698575 23.1035 19.142275 23.1035H22.3113C22.533125 23.1035 22.723275 23.00845 22.881725 22.881675C23.008525 22.723275 23.10355 22.53315 23.10355 22.31125V19.79185C24.022625 19.47495 24.68805 18.587625 24.68805 17.557725C24.68805 16.52775 24.02255 15.640425 23.10355 15.323525Z"
                      fill="#333"></path>
                <path d="M12.233625 12.23365L22.881475 22.881475C22.723075 23.0083 22.532925 23.1033 22.31105 23.1033H19.142025C18.698325 23.1033 18.349775 22.75465 18.349775 22.31105C18.349775 21.867325 18.00125 21.5188 17.557525 21.5188C17.1138 21.5188 16.765275 21.867325 16.765275 22.31105C16.765275 22.75465 16.416725 23.1033 15.973025 23.1033H12.804C12.3603 23.1033 12.01175 22.75465 12.01175 22.31105V19.791625C11.092675 19.474725 10.42725 18.5874 10.42725 17.557525C10.42725 16.52755 11.092675 15.640225 12.01175 15.323325V12.804C12.0118 12.582225 12.106875 12.3921 12.233625 12.23365Z"
                      fill="#333"></path>
            </g>

        </svg>
    </g>

    <g id="storybook">
        <svg viewBox="0 0 36 44.852294921875" fill="none" xmlns="http://www.w3.org/2000/svg">
            <g opacity="0.5">
                <path d="M1.3910475 41.33L0.001614895 4.307825C-0.0442725 3.085125 0.893245 2.0489075 2.1144175 1.972585L33.60425 0.004468075C34.84725 -0.07321975 35.918 0.8714575 35.9955 2.114465C35.9985 2.1612975 36 2.2082075 36 2.2551325V42.59725C36 43.84275 34.9905 44.85225 33.745 44.85225C33.71125 44.85225 33.6775 44.8515 33.64375 44.85L3.543325 43.498C2.3710425 43.4455 1.435055 42.5025 1.3910475 41.33Z"
                      fill="#181818"></path>
                <path d="M26.584 5.51305L26.799 0.3397825L31.1235 0L31.31 5.335025C31.3165 5.5207 31.17125 5.676475 30.9855 5.68295C30.906 5.685725 30.828 5.660225 30.7655 5.611L29.098 4.297275L27.1235 5.79505C26.9755 5.907325 26.7645 5.87835 26.652 5.730325C26.60475 5.668025 26.58075 5.5912 26.584 5.51305ZM21.0534 16.905425C21.0534 17.782775 26.963 17.3623 27.7565 16.746025C27.7565 10.771475 24.550625 7.631975 18.680275 7.631975C12.809925 7.631975 9.52085 10.820325 9.52085 15.6029C9.52085 23.9325 20.76195 24.091925 20.76195 28.63525C20.76195 29.91075 20.13745 30.668 18.763525 30.668C16.973275 30.668 16.265525 29.75375 16.348775 26.645C16.348775 25.9705 9.52085 25.76025 9.312675 26.645C8.7826 34.1785 13.47605 36.35125 18.8468 36.35125C24.051025 36.35125 28.131 33.57725 28.131 28.55575C28.131 19.6282 16.723475 19.867325 16.723475 15.443475C16.723475 13.65 18.05575 13.410875 18.8468 13.410875C19.679475 13.410875 21.1783 13.55765 21.0534 16.905425Z"
                      fill="white"></path>
            </g>
        </svg>
    </g>

    <g id="typescript">
        <svg opacity="0.5" fill="none" height="80" viewBox="0 0 41 41" width="80" xmlns="http://www.w3.org/2000/svg">
            <path clip-rule="evenodd"
                  d="m.98608 0h24.32332c.5446 0 .9861.436522.9861.975v24.05c0 .5385-.4415.975-.9861.975h-24.32332c-.544597 0-.98608-.4365-.98608-.975v-24.05c0-.538478.441483-.975.98608-.975zm13.63142 13.8324v-2.1324h-9.35841v2.1324h3.34111v9.4946h2.6598v-9.4946zm1.0604 9.2439c.4289.2162.9362.3784 1.5218.4865.5857.1081 1.2029.1622 1.8518.1622.6324 0 1.2331-.0595 1.8023-.1784.5691-.1189 1.0681-.3149 1.497-.5879s.7685-.6297 1.0187-1.0703.3753-.9852.3753-1.6339c0-.4703-.0715-.8824-.2145-1.2365-.1429-.3541-.3491-.669-.6186-.9447-.2694-.2757-.5925-.523-.9692-.7419s-.8014-.4257-1.2743-.6203c-.3465-.1406-.6572-.2771-.9321-.4095-.275-.1324-.5087-.2676-.7011-.4054-.1925-.1379-.3409-.2838-.4454-.4379-.1045-.154-.1567-.3284-.1567-.523 0-.1784.0467-.3392.1402-.4824.0935-.1433.2254-.2663.3959-.369s.3794-.1824.6269-.2392c.2474-.0567.5224-.0851.8248-.0851.22 0 .4523.0162.697.0486.2447.0325.4908.0825.7382.15.2475.0676.4881.1527.7218.2555.2337.1027.4495.2216.6475.3567v-2.4244c-.4015-.1514-.84-.2636-1.3157-.3365-.4756-.073-1.0214-.1095-1.6373-.1095-.6268 0-1.2207.0662-1.7816.1987-.5609.1324-1.0544.3392-1.4806.6203s-.763.6392-1.0104 1.0743c-.2475.4352-.3712.9555-.3712 1.5609 0 .7731.2268 1.4326.6805 1.9785.4537.546 1.1424 1.0082 2.0662 1.3866.363.146.7011.2892 1.0146.4298.3134.1405.5842.2865.8124.4378.2282.1514.4083.3162.5403.4946s.198.3811.198.6082c0 .1676-.0413.323-.1238.4662-.0825.1433-.2076.2676-.3753.373s-.3766.1879-.6268.2473c-.2502.0595-.5431.0892-.8785.0892-.5719 0-1.1383-.0986-1.6992-.2959-.5608-.1973-1.0805-.4933-1.5589-.8879z"
                  fill="#181818" fill-rule="evenodd"></path>
        </svg>
    </g>

    <g id="react">
        <svg viewBox="0 0 41 42.27783203125" fill="none" xmlns="http://www.w3.org/2000/svg">
            <g opacity="0.5">
                <path d="M20.499975 21.96725C22.5585 21.96725 24.22725 20.298475 24.22725 18.239975C24.22725 16.18145 22.5585 14.5127 20.499975 14.5127C18.44145 14.5127 16.7727 16.18145 16.7727 18.239975C16.7727 20.298475 18.44145 21.96725 20.499975 21.96725Z"
                      fill="#333"></path>
                <path d="M20.5 25.876C31.54575 25.876 40.5 22.457075 40.5 18.239625C40.5 14.0222 31.54575 10.603275 20.5 10.603275C9.4543 10.603275 0.5 14.0222 0.5 18.239625C0.5 22.457075 9.4543 25.876 20.5 25.876Z"
                      stroke="#333"></path>
                <path d="M13.8867 22.0582C19.40955 31.624 26.8475 37.66925 30.5 35.5605C34.1525 33.45175 32.63625 23.987675 27.11325 14.421825C21.590425 4.855975 14.152425 -1.1892225 10.5 0.9195C6.847575 3.028225 8.363875 12.492325 13.8867 22.0582Z"
                      stroke="#333"></path>
                <path d="M13.8867 14.422175C8.363875 23.988025 6.847575 33.45225 10.5 35.56075C14.152425 37.6695 21.590425 31.6245 27.11325 22.05855C32.63625 12.4927 34.1525 3.028575 30.5 0.919855C26.8475 -1.1888675 19.40955 4.856325 13.8867 14.422175Z"
                      stroke="#333"></path>
            </g>
        </svg>
    </g>

    <g id="redux">
        <svg viewBox="0 0 40 37.972412109375" fill="none" xmlns="http://www.w3.org/2000/svg">
            <g opacity="0.5">
                <path d="M27.71575 26.51975C29.19175 26.367 30.31175 25.0945 30.26075 23.567425C30.20975 22.040375 28.93725 20.818725 27.41025 20.818725H27.3085C25.7305 20.869625 24.508875 22.193075 24.5598 23.771025C24.6107 24.53455 24.9161 25.19625 25.37425 25.6545C23.64355 29.06475 20.996675 31.559 17.026375 33.646C14.328575 35.07125 11.529 35.58025 8.729425 35.22375C6.43885 34.9185 4.6573 33.9005 3.537475 32.22075C1.908615 29.7265 1.75591 27.02875 3.13025 24.33095C4.097375 22.396675 5.624425 20.97145 6.59155 20.258825C6.38795 19.5971 6.08255 18.477275 5.929825 17.66285C-1.450885 23.0075 -0.6873625 30.2355 1.552305 33.646C3.23205 36.191 6.64245 37.769 10.409175 37.769C11.4272 37.769 12.445225 37.66725 13.46325 37.41275C19.97865 36.14 24.9161 32.2715 27.71575 26.51975Z"
                      fill="#333"></path>
                <path d="M36.6745 20.2077C32.806 15.677475 27.105 13.1833 20.589575 13.1833H19.77515C19.317025 12.267075 18.3499 11.65625 17.280975 11.65625H17.179175C15.601225 11.70715 14.3796 13.0306 14.4305 14.608525C14.4814 16.135575 15.753925 17.357225 17.280975 17.357225H17.382775C18.5026 17.306325 19.46975 16.5937 19.87695 15.626575H20.793175C24.6617 15.626575 28.3265 16.7464 31.63525 18.935175C34.18025 20.614925 36.01275 22.803675 37.03075 25.4505C37.896 27.5885 37.84525 29.6755 36.929 31.457C35.50375 34.15475 33.11125 35.63075 29.9555 35.63075C27.9195 35.63075 25.98525 35.02 24.9671 34.562C24.407175 35.071 23.38915 35.88525 22.676525 36.3945C24.8653 37.4125 27.105 37.97225 29.24275 37.97225C34.12925 37.97225 37.7435 35.2745 39.11775 32.57675C40.59375 29.6245 40.492 24.534325 36.6745 20.2077Z"
                      fill="#333"></path>
                <path d="M10.816725 27.385C10.867625 28.912 12.14015 30.13375 13.6672 30.13375H13.769C15.34695 30.08275 16.5686 28.75925 16.5177 27.1815C16.466775 25.65425 15.19425 24.432725 13.6672 24.432725H13.5654C13.4636 24.432725 13.3109 24.432725 13.2091 24.483625C11.122125 21.022325 10.2568 17.2556 10.5622 13.1835C10.765825 10.1294 11.78385 7.482525 13.5654 5.29375C15.04155 3.4104 17.892025 2.494175 19.826275 2.4432725C25.22175 2.34147 27.5125 9.060475 27.665 11.75825C28.32675 11.91095 29.44675 12.267275 30.21025 12.521775C29.5995 4.275725 24.509225 0 19.622675 0C15.04155 0 10.816725 3.3086 9.136975 8.19515C6.7955 14.710525 8.32255 20.971425 11.173025 25.90875C10.918525 26.26525 10.765825 26.825 10.816725 27.385Z"
                      fill="#333"></path>
            </g>
        </svg>
    </g>

    <g id="materialui">
        <svg opacity="0.5" xmlns="http://www.w3.org/2000/svg" width="65" height="67" viewBox="0 0 50 52" fill="none"
             class="css-1170n61">
            <path fill-rule="evenodd" clip-rule="evenodd"
                  d="M30.343 21.976a1 1 0 00.502-.864l.018-5.787a1 1 0 01.502-.864l3.137-1.802a1 1 0 011.498.867v10.521a1 1 0 01-.502.867l-11.839 6.8a1 1 0 01-.994.001l-9.291-5.314a1 1 0 01-.504-.868v-5.305c0-.006.007-.01.013-.007.005.003.012 0 .012-.007v-.006c0-.004.002-.008.006-.01l7.652-4.396c.007-.004.004-.015-.004-.015a.008.008 0 01-.008-.008l.015-5.201a1 1 0 00-1.5-.87l-5.687 3.277a1 1 0 01-.998 0L6.666 9.7a1 1 0 00-1.499.866v9.4a1 1 0 01-1.496.869l-3.166-1.81a1 1 0 01-.504-.87l.028-16.43A1 1 0 011.527.86l10.845 6.229a1 1 0 00.996 0L24.21.86a1 1 0 011.498.868v16.434a1 1 0 01-.501.867l-5.678 3.27a1 1 0 00.004 1.735l3.132 1.783a1 1 0 00.993-.002l6.685-3.839zM31 7.234a1 1 0 001.514.857l3-1.8A1 1 0 0036 5.434V1.766A1 1 0 0034.486.91l-3 1.8a1 1 0 00-.486.857v3.668z"
                  fill="#333"></path>
        </svg>
    </g>

    <g id="restApi">
        <svg viewBox="0 0 47 38.38330078125" fill="none" xmlns="http://www.w3.org/2000/svg">
            <path fill-rule="evenodd" clip-rule="evenodd"
                  d="M39.3185 2.71945L40.30925 4.02405C40.56925 4.368375 40.50425 4.861875 40.16 5.12205L39.108 5.921625C39.29925 6.43045 39.4215 6.9737 39.47125 7.52845L40.66875 7.692975C41.097 7.75035 41.3955 8.148225 41.338 8.5767L41.11625 10.20265C41.05875 10.63115 40.661 10.933375 40.2325 10.872175L38.9245 10.69235C38.691 11.2012 38.39275 11.667925 38.04075 12.084925L38.77525 13.049025C39.03525 13.39335 38.9665 13.886875 38.62225 14.147025L37.31775 15.1379C36.9735 15.39805 36.48025 15.3292 36.22025 14.9887L35.4205 13.9366C34.908 14.1279 34.36875 14.2503 33.81025 14.30005L33.64575 15.4975C33.58825 15.926 33.1905 16.2244 32.762 16.167025L31.1365 15.945125C30.708 15.88775 30.40975 15.489875 30.46725 15.061375L30.647 13.752975C30.142 13.5196 29.6715 13.2212 29.2545 12.873025L28.29075 13.603775C27.9465 13.863925 27.453 13.798875 27.19275 13.454575L26.202 12.149975C25.942 11.80565 26.007 11.312125 26.35125 11.051975L27.40325 10.2524C27.212 9.739725 27.0895 9.2003 27.04 8.645575L25.8425 8.48105C25.41425 8.423675 25.112 8.0258 25.17325 7.597325L25.395 5.97135C25.45625 5.542875 25.85025 5.244475 26.27875 5.30185L27.58675 5.48165C27.82 4.976675 28.1185 4.5061 28.4665 4.0891L27.736 3.124975C27.47575 2.7845 27.541 2.29097 27.885 2.0308275L29.1895 1.03995C29.53375 0.7797975 30.02725 0.844835 30.2875 1.1891525L31.08675 2.24123C31.5955 2.04996 32.1385 1.9275275 32.6935 1.87779L32.858 0.680325C32.91525 0.25184 33.313 -0.050395 33.7415 0.00699145L35.367 0.2288855C35.7955 0.2862725 36.0975 0.6841525 36.0365 1.1126375L35.85675 2.4210425C36.3655 2.654425 36.832 2.952825 37.25275 3.3048L38.21675 2.574075C38.561 2.310105 39.0545 2.37514 39.3185 2.71945ZM11.34935 25.67775V19.365375H14.600575C15.2051 19.365375 15.66395 19.4151 15.9816 19.522225C16.299025 19.6256 16.5591 19.816725 16.750425 20.096175C16.945475 20.37915 17.04495 20.7197 17.04495 21.121375C17.04495 21.46955 16.9684 21.77565 16.819175 22.028075C16.66995 22.284425 16.463525 22.491025 16.203475 22.647875C16.038975 22.747375 15.80945 22.831575 15.51865 22.896575C15.752075 22.976875 15.9203 23.049525 16.0235 23.129825C16.09635 23.183475 16.19955 23.294525 16.3335 23.46275C16.46725 23.63115 16.5591 23.7649 16.604925 23.85675L17.55355 25.68175H15.350425L14.30995 23.757275C14.176 23.50875 14.06125 23.34425 13.95805 23.2714C13.81645 23.17585 13.655875 23.1261 13.479825 23.1261H13.307675V25.68175H11.34935V25.67775ZM18.226825 36.66925H14.5853L14.06125 38.38325H10.779475L14.692425 27.981H18.21155L22.1094 38.38325H18.743225L18.226825 36.66925ZM17.5459 34.41575L16.409875 30.67425L15.270125 34.41575H17.5459ZM22.866675 27.981H28.214C29.38075 27.981 30.253 28.2565 30.8305 28.81125C31.40825 29.366 31.69875 30.158 31.69875 31.17925C31.69875 32.23125 31.38125 33.054 30.75025 33.647C30.119 34.24 29.15125 34.5345 27.8545 34.5345H26.09125V38.38325H22.866675V27.981ZM26.09125 32.4265H26.883C27.5065 32.4265 27.9465 32.3195 28.19875 32.10125C28.45125 31.887 28.5775 31.60775 28.5775 31.275C28.5775 30.94975 28.4665 30.6705 28.2485 30.44475C28.0305 30.219 27.6175 30.10425 27.013 30.10425H26.09125V32.4265ZM32.99925 27.981H36.22375V38.38325H32.99925V27.981ZM13.307675 21.928575H14.130175C14.218125 21.928575 14.39025 21.898025 14.6466 21.84065C14.776625 21.813825 14.88375 21.7488 14.96405 21.6417C15.04825 21.534575 15.08645 21.412175 15.08645 21.2745C15.08645 21.071625 15.021425 20.911025 14.8914 20.803925C14.76135 20.692875 14.520275 20.639425 14.16465 20.639425H13.307675V21.928575ZM17.92855 19.365375H23.14965V20.712075H19.8869V21.71825H22.9125V23.0037H19.8869V24.24705H23.245425V25.674H17.92855V19.365375ZM23.708175 23.58905L25.5595 23.4743C25.59775 23.776475 25.682 24.00225 25.80425 24.159125C26.007 24.41155 26.294 24.541575 26.665 24.541575C26.9405 24.541575 27.15825 24.476575 27.3075 24.346525C27.45675 24.2165 27.53325 24.06335 27.53325 23.891225C27.53325 23.726725 27.4605 23.581425 27.31925 23.451375C27.1775 23.32115 26.84475 23.202675 26.32075 23.084C25.46775 22.892675 24.859475 22.636325 24.4923 22.318875C24.1251 22.00125 23.9416 21.595875 23.9416 21.102175C23.9416 20.7771 24.037175 20.471 24.2246 20.1841C24.412 19.8972 24.694975 19.6677 25.07375 19.5031C25.4525 19.338575 25.96875 19.25825 26.62675 19.25825C27.434 19.25825 28.046 19.40745 28.4705 19.7096C28.891 20.011975 29.14375 20.486275 29.224 21.144275L27.39175 21.2553C27.342 20.968425 27.23875 20.7579 27.08575 20.631775C26.92875 20.50155 26.711 20.436525 26.43925 20.436525C26.21375 20.436525 26.0415 20.486275 25.92675 20.58205C25.812 20.6776 25.75475 20.796275 25.75475 20.93395C25.75475 21.033425 25.80425 21.121375 25.89625 21.205575C25.98775 21.28585 26.202 21.36615 26.5465 21.439C27.3995 21.6225 28.0115 21.8101 28.3785 21.997525C28.74575 22.184925 29.0175 22.418375 29.182 22.697625C29.35025 22.97315 29.43425 23.286675 29.43425 23.63115C29.43425 24.036525 29.3235 24.407625 29.09775 24.7482C28.87575 25.08875 28.56225 25.34875 28.16075 25.52475C27.759 25.701 27.25425 25.78875 26.642 25.78875C25.571 25.78875 24.8252 25.58225 24.412 25.169C23.999 24.748175 23.76555 24.22415 23.708175 23.58905ZM29.71725 19.365375H35.65V20.926325H33.661V25.67775H31.71025V20.926325H29.71725V19.365375ZM23.153575 4.38365C22.453475 4.3301 21.745925 4.33775 21.046025 4.406625C18.89245 4.613225 16.800175 5.3975 15.07115 6.740325C13.070525 8.289775 11.55205 10.6082 10.9669 13.680275L10.7832 14.64055L9.82695 14.808875C8.8899 14.973375 8.052125 15.1991 7.31775 15.486025C6.606275 15.7615 5.9712 16.102 5.4166 16.5037C4.97285 16.82505 4.590375 17.184675 4.2653 17.5749C3.2593 18.780025 2.792625 20.291225 2.8042 21.821475C2.81555 23.3748 3.3204 24.943225 4.25375 26.2325C4.601925 26.71075 5.003575 27.15075 5.462625 27.53325C5.9293 27.91975 6.45315 28.241 7.0422 28.48225C7.375125 28.61975 7.73075 28.73475 8.10185 28.8265V31.692C7.33675 31.55425 6.632925 31.34775 5.975125 31.076C5.1068 30.7165 4.33795 30.2535 3.66095 29.68725C3.018225 29.15175 2.4559975 28.5435 1.97797 27.8815C0.7040775 26.12175 0.015529 23.971525 0.0002540225 21.8291C-0.01502095 19.663775 0.6582525 17.509875 2.111725 15.7653C2.5823 15.1991 3.1369 14.6788 3.7718 14.2197C4.5101 13.6841 5.3555 13.232675 6.31175 12.86155C6.96955 12.605225 7.673375 12.391 8.415575 12.21885C9.257075 8.8751 11.0509 6.300375 13.357425 4.51375C15.514925 2.8419 18.11205 1.8663125 20.785775 1.6099875C22.1897 1.476085 23.6126 1.5372975 25.005 1.79745C24.974225 1.9237 24.9476 2.04996 24.932125 2.1800325L24.928425 2.2029825C24.901575 2.4210425 24.890225 2.639125 24.901575 2.861025C24.60705 2.975775 24.3317 3.13265 24.083 3.323925L24.07165 3.3316C23.70055 3.610875 23.386825 3.9705 23.153575 4.38365ZM43.39225 11.72915C43.60625 11.92425 43.81275 12.127 44.01575 12.3451C44.42475 12.78505 44.81125 13.2824 45.1745 13.83715C46.3985 15.7194 47.026 18.23295 46.99925 20.692875C46.97225 23.106925 46.32225 25.5095 44.991 27.277C44.1225 28.42875 43.00975 29.36975 41.67475 30.11575C40.76025 30.6285 39.7315 31.053 38.61075 31.3975V28.4325C39.215 28.20675 39.7775 27.95425 40.29375 27.66725C41.29975 27.10475 42.12225 26.42 42.738 25.5975C43.69425 24.323625 44.16475 22.521575 44.184 20.6737C44.20675 18.734125 43.7325 16.7868 42.81075 15.371275C42.54675 14.9619 42.256 14.59465 41.95 14.265625C41.8315 14.139375 41.71275 14.020775 41.5905 13.906C41.60975 13.7147 41.61725 13.5196 41.60575 13.3245C41.90025 13.209725 42.1755 13.05285 42.42425 12.86155L42.43575 12.8539C42.82975 12.551675 43.15875 12.1691 43.39225 11.72915ZM33.69175 4.8963C35.455 5.13735 36.6865 6.763275 36.44575 8.526975C36.20475 10.29065 34.579 11.526375 32.81575 11.28535C31.05225 11.044325 29.81675 9.418375 30.0615 7.6547C30.3065 5.891025 31.92825 4.6553 33.69175 4.8963Z"
                  fill="#333" fill-opacity="0.5"></path>
        </svg>
    </g>

    <g id="websocket">
        <svg viewBox="0 0 48 36.01953125" fill="none" xmlns="http://www.w3.org/2000/svg">
            <path opacity="0.5"
                  d="M36.0825 27.12075H42.04125V12.813625L35.32775 6.100225L31.11425 10.3138L36.0825 15.282025V27.12075ZM42.057 30.108H33.37825H21.2722L16.303975 25.13975L18.41075 23.033075L22.51425 27.1365H30.957L22.640025 18.8038L24.762525 16.6813L33.0795 24.998375V16.555525L28.99175 12.467725L31.08275 10.376675L20.75335 0H10.56535H0L5.943 5.943V5.958725H5.97445H18.26925L22.6243 10.3138L16.2568 16.6813L11.901725 12.326225V8.94595H5.943V14.794625L16.2568 25.1085L12.05895 29.30625L18.77235 36.01975H28.96025H48L42.057 30.108Z"
                  fill="#333"></path>
        </svg>
    </g>

    <g id="hookForm">
        <svg opacity="0.5" class="Header_desktopLogo__Q6dnO" viewBox="0 0 100 100">
            <path d="M73.56,13.32H58.14a8.54,8.54,0,0,0-16.27,0H26.44a11,11,0,0,0-11,11V81.63a11,11,0,0,0,11,11H73.56a11,11,0,0,0,11-11V24.32A11,11,0,0,0,73.56,13.32Zm-30.92,2a1,1,0,0,0,1-.79,6.54,6.54,0,0,1,12.78,0,1,1,0,0,0,1,.79h5.38v6.55a3,3,0,0,1-3,3H40.25a3,3,0,0,1-3-3V15.32ZM82.56,81.63a9,9,0,0,1-9,9H26.44a9,9,0,0,1-9-9V24.32a9,9,0,0,1,9-9h8.81v6.55a5,5,0,0,0,5,5h19.5a5,5,0,0,0,5-5V15.32h8.81a9,9,0,0,1,9,9Z" fill="#333"></path>
            <path style="transform:translateX(-25px)" d="M71.6,45.92H54a1,1,0,0,0,0,2H71.6a1,1,0,0,0,0-2Z" fill="#333"></path>
            <path d="M71.6,45.92H54a1,1,0,0,0,0,2H71.6a1,1,0,0,0,0-2Z" fill="#333" ></path>
            <path style="transform:translateX(-25px)" d="M71.1,69.49H53.45a1,1,0,1,0,0,2H71.1a1,1,0,0,0,0-2Z"
                  fill="#333"></path>
            <path d="M71.1,69.49H53.45a1,1,0,1,0,0,2H71.1a1,1,0,0,0,0-2Z" fill="#333"></path>
        </svg>
    </g>

    <g id="styledComponents">
        <svg opacity="0.5" stroke="currentColor" fill="currentColor" stroke-width="0" role="img" viewBox="0 0 40 50" height="110" width="82" xmlns="http://www.w3.org/2000/svg"><title></title><path d="M16.214 6.762l-.075.391c-.116.741-.074.953.244 1.228l.307.254-.318 1.418c-.19.846-.423 1.555-.571 1.788-.127.201-.275.497-.307.656-.053.19-.233.381-.508.55-.243.138-.72.508-1.058.805-.27.243-.456.392-.557.456l-.33.261c-.106.17-.166.307-.189.411-.023.107-.01.178.024.23.033.05.09.085.168.107a.954.954 0 00.282.023 3 3 0 00.632-.112c.07-.019.125-.037.173-.053.074-.091.245-.263.548-.562.804-.793 1.111-1.227.794-1.11-.117.042-.064-.064.137-.276.424-.413.667-1.037 1.175-2.994.402-1.545.402-1.567.698-1.567.139 0 .532.024.532.024V6.762h-.902zm3.839 3.165c-.064 0-.17.096-.233.202-.116.19.021.306 1.767 1.396 1.037.657 1.873 1.217 1.852 1.26-.021.031-.868.582-1.883 1.217-1.842 1.142-1.852 1.153-1.683 1.386.212.275 0 .37 2.391-1.122L24 13.155v-.836l-1.937-1.196c-1.047-.656-1.957-1.185-2.01-1.196zm-16.085.117c-.053 0-.963.54-2.01 1.185L0 12.425v.836l1.947 1.217c1.08.666 1.99 1.217 2.032 1.217.042 0 .127-.096.212-.212.127-.201.02-.286-1.768-1.418C.72 12.996.54 12.848.71 12.732c.106-.074.91-.572 1.778-1.111 1.979-1.217 1.873-1.133 1.714-1.387-.063-.105-.17-.2-.233-.19zm8.684.023c-.292-.002-.92.443-2.8 1.978-.081.193-.088.326-.051.412.024.059.068.1.129.13.06.03.138.048.224.055.171.015.373-.012.536-.044l.11-.025a.386.386 0 01.144-.118c.116-.064.603-.508 1.09-.984.857-.868 1.058-1.26.709-1.387a.24.24 0 00-.09-.017zm2.196.603c-.257.007-.72.305-1.513.938-.398.323-.65.497-.785.533l-.524.414c-.197.36-.226.583-.174.706a.25.25 0 00.138.134.644.644 0 00.24.045 2.18 2.18 0 00.58-.085 3.466 3.466 0 00.291-.092l.029-.012.053-.028c.1-.129.33-.372.618-.652.91-.878 1.375-1.502 1.28-1.735-.043-.113-.117-.17-.233-.166zm-2.424 1.08c-.074.008-.24.136-.539.398-.432.382-.903.602-1.066.504a3.97 3.97 0 01-.114.024c-.166.033-.373.06-.558.045a.708.708 0 01-.252-.063.337.337 0 01-.168-.17c-.037-.09-.037-.202.005-.345l-.65.534-1.471 1.217V15.867l4.82-3.797a.41.41 0 01.016-.123c.037-.134.035-.202-.023-.196zm2.074.639c-.073 0-.195.103-.39.31-.265.283-.682.557-.903.613l-.034.018a2.191 2.191 0 01-.11.042c-.06.02-.138.044-.228.068-.18.049-.404.094-.604.089a.732.732 0 01-.275-.054.344.344 0 01-.184-.18c-.058-.139-.035-.334.092-.611L7.61 16.033v1.205h1.868l3.962-3.112c.103-.114.258-.27.467-.465.56-.519.687-.698.687-.963 0-.206-.023-.31-.096-.31zm.943 1.95l-.339.338c-.19.18-.529.402-.761.497l-.046.02-.003.005-.01.01c-.009.007-.013.008-.02.011a3.432 3.432 0 01-.282.093 3.058 3.058 0 01-.65.115 1.035 1.035 0 01-.31-.027.364.364 0 01-.218-.144c-.048-.074-.062-.173-.035-.295a1.11 1.11 0 01.095-.25l-3.197 2.526h4.252l.508-.582c.698-.814 1.016-1.396 1.016-1.894z"></path></svg>
    </g>

</svg>
